-
 
http://www.Speed. Cd       the fast  and The Hottest Private Tracker on the net 
http://www.Speed. Cd

Please Seed back to make the speed Faster!!
 ............ NFO .............
-
 
http://www.Speed. CdG.I.Joe Retaliation 2013 TS XViD - JUSTiCE



SOURCE : 720p 26k


Video and audio both cleaned and given justice.
Check sample and see.....


First off nice work by 26k and thanks for sharing ....but everyone has different taste when it comes
to colouring,contrast etc....so i thought i'd clean it up and put my spin on it.
Main work was the colouring,contrast,brightness levels ..aswell a little perspective fix.

Audio cleaned up in Adobe and resave and remuxed.


Video
ID                               : 0
Format                           : MPEG-4 Visual
Format profile                   : Advanced Simple@L5
Format settings, BVOP            : 2
Format settings, QPel            : No
Format settings, GMC             : No warppoints
Format settings, Matrix          : Default (MPEG)
Muxing mode                      : Packed bitstream
Codec ID                         : XVID
Codec ID/Hint                    : XviD
Duration                         : 1h 40mn
Bit rate                         : 1 824 Kbps
Width                            : 720 pixels
Height                           : 288 pixels
Display aspect ratio             : 2.500
Frame rate                       : 29.970 fps
Color space                      : YUV
Chroma subsampling               : 4:2:0
Bit depth                        : 8 bits
Scan type                        : Progressive
Compression mode                 : Lossy
Bits/(Pixel*Frame)               : 0.293
Stream size                      : 1.29 GiB (93%)
Writing library                  : XviD 64

Audio
ID                               : 1
Format                           : MPEG Audio
Format version                   : Version 1
Format profile                   : Layer 3
Mode                             : Joint stereo
Mode extension                   : MS Stereo
Codec ID                         : 55
Codec ID/Hint                    : MP3
Duration                         : 1h 40mn
Bit rate mode                    : Constant
Bit rate                         : 128 Kbps
Channel(s)                       : 2 channels
Sampling rate                    : 44.1 KHz
Compression mode                 : Lossy
Stream size                      : 92.3 MiB (7%)
Alignment                        : Split accross interleaves
Interleave, duration             : 33 ms (1.00 video frame)
Interleave, preload duration     : 500 ms


EXTRA NOTE :

Unsure whos source it actually is but,you need to be more careful .....because if i 
can find and see these,so can others :(
Just a friendly heads up to whoever this may concern ;-)

[IMG]http://lookpic.com/O/i2/761/NelvNQBK.png[/IMG]

Now the rest of the screenies : 

[IMG]http://lookpic.com/O/i2/1136/TfbugzUl.png[/IMG]
[IMG]http://lookpic.com/O/i2/1849/0ZE0BLZl.png[/IMG]
[IMG]http://lookpic.com/O/i2/1695/BhLsdbjH.png[/IMG]
[IMG]http://lookpic.com/O/i2/1227/T3kIzAao.png[/IMG]
[IMG]http://lookpic.com/O/i2/621/LOSSHAV.png[/IMG]